<svg width="16" height="16" viewBox="0 0 16 16" fill="none" xmlns="http://www.w3.org/2000/svg">
<path fill-rule="evenodd" clip-rule="evenodd" d="M12.6897 7.17241V8.59917L14.1832 10.0927C14.2866 10.1961 14.3448 10.3364 14.3448 10.4828V12.1379C14.3448 12.2843 14.2867 12.4246 14.1832 12.5281C14.0798 12.6315 13.9394 12.6897 13.7931 12.6897H9.93104V13.2414C9.93104 13.973 9.6404 14.6747 9.12305 15.192C8.60571 15.7094 7.90405 16 7.17241 16C6.44078 16 5.73912 15.7094 5.22178 15.192C4.70443 14.6747 4.41379 13.973 4.41379 13.2414V12.6897H0.551724C0.405398 12.6897 0.265065 12.6315 0.161596 12.5281C0.0581279 12.4246 0 12.2843 0 12.1379V10.4828C3.12482e-05 10.3364 0.0581797 10.1961 0.161655 10.0927L1.65517 8.59917V6.62069C1.65688 5.25343 2.16551 3.93536 3.08269 2.92137C3.99987 1.90737 5.26045 1.26948 6.62069 1.13103V0H7.72414V1.13159C8.29553 1.19001 8.85412 1.33822 9.37931 1.57076V2.80386C8.70916 2.41403 7.948 2.20795 7.17271 2.20644C6.39743 2.20493 5.63547 2.40804 4.96381 2.79526C4.29214 3.18247 3.73455 3.74008 3.34736 4.41176C2.96017 5.08344 2.75708 5.8454 2.75862 6.62069V8.82759C2.75859 8.9739 2.70044 9.11421 2.59697 9.21766L1.10345 10.7112V11.5862H13.2414V10.7112L11.7479 9.21766C11.6444 9.11421 11.5862 8.9739 11.5862 8.82759V7.17241H12.6897ZM8.3428 14.4118C8.6532 14.1014 8.82759 13.6804 8.82759 13.2414V12.6897H5.51724V13.2414C5.51724 13.6804 5.69163 14.1014 6.00203 14.4118C6.31244 14.7222 6.73344 14.8966 7.17241 14.8966C7.61139 14.8966 8.03239 14.7222 8.3428 14.4118ZM14.8965 3.86217C14.8965 5.08101 13.9084 6.06907 12.6896 6.06907C11.4707 6.06907 10.4827 5.08101 10.4827 3.86217C10.4827 2.64333 11.4707 1.65527 12.6896 1.65527C13.9084 1.65527 14.8965 2.64333 14.8965 3.86217Z" fill="#717171"/>
</svg>
