<svg width="16" height="17" viewBox="0 0 16 17" fill="none" xmlns="http://www.w3.org/2000/svg">
<path d="M8.47399 9.58016L6.63356 11.4126C6.55856 11.487 6.49903 11.5755 6.4584 11.673C6.41778 11.7705 6.39686 11.8751 6.39686 11.9807C6.39686 12.0864 6.41778 12.1909 6.4584 12.2885C6.49903 12.386 6.55856 12.4745 6.63356 12.5489C6.70794 12.6239 6.79645 12.6834 6.89396 12.724C6.99147 12.7646 7.09606 12.7856 7.20169 12.7856C7.30732 12.7856 7.41191 12.7646 7.50942 12.724C7.60693 12.6834 7.69544 12.6239 7.76982 12.5489L10.9706 9.34811C11.0434 9.27201 11.1005 9.18227 11.1386 9.08404C11.2186 8.88923 11.2186 8.67072 11.1386 8.4759C11.1005 8.37768 11.0434 8.28794 10.9706 8.21184L7.76982 5.01109C7.69522 4.93648 7.60664 4.8773 7.50916 4.83692C7.41168 4.79654 7.3072 4.77576 7.20169 4.77576C7.09618 4.77576 6.9917 4.79654 6.89422 4.83692C6.79674 4.8773 6.70817 4.93648 6.63356 5.01109C6.55895 5.0857 6.49977 5.17427 6.45939 5.27175C6.41901 5.36923 6.39823 5.47371 6.39823 5.57922C6.39823 5.68473 6.41901 5.78921 6.45939 5.88669C6.49977 5.98417 6.55895 6.07275 6.63356 6.14735L8.47399 7.97979H0.800188C0.587965 7.97979 0.384434 8.06409 0.23437 8.21415C0.0843052 8.36422 0 8.56775 0 8.77997C0 8.9922 0.0843052 9.19573 0.23437 9.34579C0.384434 9.49586 0.587965 9.58016 0.800188 9.58016H8.47399ZM8.00188 0.778095C6.5064 0.771418 5.03898 1.18396 3.76606 1.96893C2.49314 2.75389 1.46567 3.87987 0.800188 5.21914C0.704687 5.41014 0.688973 5.63125 0.756502 5.83384C0.824031 6.03643 0.969272 6.20389 1.16027 6.29939C1.35127 6.39489 1.57239 6.41061 1.77497 6.34308C1.97756 6.27555 2.14503 6.13031 2.24053 5.93931C2.7464 4.91772 3.51589 4.04976 4.46949 3.42511C5.42309 2.80045 6.52619 2.44178 7.6648 2.38615C8.80342 2.33051 9.93623 2.57994 10.9462 3.10865C11.9561 3.63736 12.8066 4.42617 13.4096 5.39357C14.0127 6.36097 14.3465 7.47186 14.3765 8.61144C14.4065 9.75102 14.1317 10.8779 13.5804 11.8757C13.0291 12.8736 12.2214 13.7061 11.2407 14.2872C10.26 14.8684 9.14184 15.1771 8.00188 15.1815C6.8087 15.1866 5.63825 14.8553 4.62484 14.2254C3.61143 13.5956 2.79614 12.6928 2.27253 11.6206C2.17703 11.4296 2.00957 11.2844 1.80698 11.2169C1.6044 11.1493 1.38328 11.1651 1.19228 11.2606C1.00128 11.3561 0.856039 11.5235 0.78851 11.7261C0.720981 11.9287 0.736695 12.1498 0.832195 12.3408C1.46661 13.6175 2.43059 14.7015 3.62443 15.4808C4.81827 16.26 6.19861 16.7061 7.62269 16.773C9.04676 16.8399 10.4628 16.5251 11.7245 15.8612C12.9861 15.1973 14.0474 14.2084 14.7987 12.9968C15.55 11.7852 15.964 10.3949 15.9978 8.96962C16.0315 7.54438 15.6839 6.13599 14.9909 4.89013C14.2979 3.64426 13.2846 2.60618 12.0558 1.88324C10.8271 1.1603 9.42752 0.778764 8.00188 0.778095V0.778095Z" fill="#717171"/>
</svg>
