<svg width="17" height="17" viewBox="0 0 17 17" fill="none" xmlns="http://www.w3.org/2000/svg">
<path d="M10.4053 12.4801C11.4728 12.4801 11.889 12.9559 12.2049 14.0104L12.2604 14.2038C12.4097 14.74 12.4987 14.9008 12.6791 14.975C12.8905 15.0624 13.0308 15.0501 13.2528 14.9359L13.3728 14.869C13.416 14.8428 13.4626 14.8126 13.5164 14.7775L14.0575 14.4095C14.5603 14.0789 15.0124 13.8602 15.5617 13.7231C15.7182 13.6863 15.8829 13.7127 16.0202 13.7964C16.1575 13.8801 16.2563 14.0145 16.2954 14.1704C16.3344 14.3264 16.3105 14.4915 16.2288 14.63C16.1471 14.7685 16.0142 14.8693 15.8588 14.9106C15.5281 14.9946 15.2126 15.1295 14.9235 15.3105L14.6802 15.4656L14.2885 15.7332C14.1362 15.8402 13.9772 15.9375 13.8127 16.0246C13.2879 16.2939 12.7762 16.3396 12.2131 16.1062C11.6042 15.8565 11.3594 15.4704 11.13 14.7025L11.0027 14.2593C10.855 13.7786 10.7538 13.7043 10.4053 13.7043C10.1523 13.7043 9.89113 13.8308 9.53284 14.1312L9.38267 14.2626L8.63101 14.9767C7.48188 16.0573 6.50169 16.582 5.09875 16.582C3.72273 16.582 2.5328 16.3747 1.53384 15.9544L3.93901 15.2982C4.30383 15.3374 4.69068 15.3578 5.09875 15.3578C6.06424 15.3578 6.75715 15.0191 7.61818 14.2454L7.82874 14.0504L8.26293 13.6341C8.45554 13.4489 8.60081 13.3158 8.74608 13.1934C9.30432 12.7258 9.81115 12.4801 10.4053 12.4801V12.4801ZM13.8984 1.43771C14.4458 1.98545 14.7533 2.72815 14.7533 3.50255C14.7533 4.27694 14.4458 5.01965 13.8984 5.56739L13.6633 5.80407C14.6027 6.94667 14.5693 8.15945 13.6952 9.03599L12.0621 10.6683C11.9471 10.783 11.7913 10.8474 11.6289 10.8472C11.4665 10.847 11.3109 10.7824 11.1961 10.6675C11.0814 10.5525 11.0171 10.3967 11.0172 10.2343C11.0174 10.0719 11.082 9.91625 11.197 9.80153L12.8284 8.17088C13.2243 7.77342 13.2691 7.28128 12.7958 6.66999L5.76309 13.7043C5.53691 13.9305 5.25558 14.0937 4.94695 14.1777L0.77238 15.3162C0.668314 15.3444 0.558636 15.3447 0.454446 15.3169C0.350256 15.2891 0.255251 15.2343 0.179047 15.158C0.102842 15.0817 0.0481418 14.9867 0.0204817 14.8825C-0.00717837 14.7782 -0.00681671 14.6686 0.0215301 14.5645L1.15923 10.3891C1.24338 10.0808 1.40654 9.79977 1.63259 9.57383L9.76871 1.43771C10.0399 1.16643 10.3618 0.951239 10.7162 0.804419C11.0706 0.6576 11.4504 0.582031 11.834 0.582031C12.2175 0.582031 12.5973 0.6576 12.9517 0.804419C13.3061 0.951239 13.628 1.16643 13.8992 1.43771H13.8984ZM10.6338 2.30282L2.49852 10.4398C2.42327 10.5151 2.36897 10.6088 2.341 10.7115L1.48406 13.8537L4.6262 12.9967C4.72854 12.968 4.82164 12.9132 4.89634 12.8376L13.0333 4.70228C13.1908 4.54473 13.3158 4.35769 13.4011 4.15184C13.4863 3.94599 13.5302 3.72536 13.5302 3.50255C13.5302 3.27974 13.4863 3.05911 13.4011 2.85326C13.3158 2.64741 13.1908 2.46037 13.0333 2.30282C12.8757 2.14527 12.6887 2.02029 12.4828 1.93503C12.277 1.84976 12.0564 1.80588 11.8335 1.80588C11.6107 1.80588 11.3901 1.84976 11.1843 1.93503C10.9784 2.02029 10.7914 2.14527 10.6338 2.30282V2.30282Z" fill="#717171"/>
</svg>
