<svg width="16" height="16" viewBox="0 0 16 16" fill="none" xmlns="http://www.w3.org/2000/svg">
<path d="M3.63636 7.03032C3.49252 7.03032 3.35191 7.07298 3.23231 7.15289C3.11271 7.2328 3.0195 7.34639 2.96445 7.47928C2.90941 7.61217 2.895 7.7584 2.92307 7.89948C2.95113 8.04056 3.02039 8.17014 3.1221 8.27186C3.22382 8.37357 3.3534 8.44283 3.49448 8.47089C3.63556 8.49896 3.78179 8.48455 3.91468 8.42951C4.04757 8.37446 4.16116 8.28125 4.24107 8.16165C4.32098 8.04205 4.36364 7.90144 4.36364 7.7576C4.36364 7.56471 4.28701 7.37973 4.15062 7.24334C4.01423 7.10695 3.82925 7.03032 3.63636 7.03032ZM12.3636 7.03032C12.2198 7.03032 12.0792 7.07298 11.9596 7.15289C11.84 7.2328 11.7468 7.34639 11.6917 7.47928C11.6367 7.61217 11.6223 7.7584 11.6503 7.89948C11.6784 8.04056 11.7477 8.17014 11.8494 8.27186C11.9511 8.37357 12.0807 8.44283 12.2218 8.47089C12.3628 8.49896 12.5091 8.48455 12.642 8.42951C12.7748 8.37446 12.8884 8.28125 12.9683 8.16165C13.0483 8.04205 13.0909 7.90144 13.0909 7.7576C13.0909 7.56471 13.0143 7.37973 12.8779 7.24334C12.7415 7.10695 12.5565 7.03032 12.3636 7.03032ZM13.8182 2.66669H2.18182C1.60316 2.66669 1.04821 2.89656 0.63904 3.30573C0.229869 3.7149 0 4.26985 0 4.84851V10.6667C0 11.2453 0.229869 11.8003 0.63904 12.2095C1.04821 12.6186 1.60316 12.8485 2.18182 12.8485H13.8182C14.3968 12.8485 14.9518 12.6186 15.361 12.2095C15.7701 11.8003 16 11.2453 16 10.6667V4.84851C16 4.26985 15.7701 3.7149 15.361 3.30573C14.9518 2.89656 14.3968 2.66669 13.8182 2.66669ZM14.5455 10.6667C14.5455 10.8596 14.4688 11.0446 14.3324 11.1809C14.1961 11.3173 14.0111 11.394 13.8182 11.394H2.18182C1.98893 11.394 1.80395 11.3173 1.66756 11.1809C1.53117 11.0446 1.45455 10.8596 1.45455 10.6667V4.84851C1.45455 4.65562 1.53117 4.47064 1.66756 4.33425C1.80395 4.19786 1.98893 4.12123 2.18182 4.12123H13.8182C14.0111 4.12123 14.1961 4.19786 14.3324 4.33425C14.4688 4.47064 14.5455 4.65562 14.5455 4.84851V10.6667ZM8 5.57578C7.56848 5.57578 7.14665 5.70374 6.78785 5.94348C6.42905 6.18322 6.1494 6.52398 5.98426 6.92265C5.81913 7.32133 5.77592 7.76002 5.8601 8.18325C5.94429 8.60648 6.15209 8.99524 6.45722 9.30037C6.76235 9.60551 7.15112 9.81331 7.57435 9.89749C7.99758 9.98168 8.43627 9.93847 8.83495 9.77333C9.23362 9.6082 9.57437 9.32855 9.81412 8.96975C10.0539 8.61095 10.1818 8.18912 10.1818 7.7576C10.1818 7.17894 9.95195 6.62399 9.54278 6.21482C9.13361 5.80565 8.57865 5.57578 8 5.57578ZM8 8.48487C7.85616 8.48487 7.71555 8.44221 7.59595 8.3623C7.47635 8.28239 7.38313 8.1688 7.32809 8.03591C7.27304 7.90302 7.25864 7.75679 7.2867 7.61571C7.31476 7.47463 7.38403 7.34505 7.48574 7.24334C7.58745 7.14163 7.71704 7.07236 7.85812 7.0443C7.99919 7.01624 8.14542 7.03064 8.27832 7.08568C8.41121 7.14073 8.52479 7.23395 8.60471 7.35354C8.68462 7.47314 8.72727 7.61375 8.72727 7.7576C8.72727 7.95048 8.65065 8.13547 8.51426 8.27186C8.37787 8.40825 8.19288 8.48487 8 8.48487Z" fill="#717171"/>
</svg>
