<svg width="16" height="18" viewBox="0 0 16 18" fill="none" xmlns="http://www.w3.org/2000/svg">
<path d="M9.00205 0.697906C9.42636 0.697997 9.83326 0.866627 10.1333 1.16671L13.6645 4.69791C13.9645 4.99789 14.1332 5.40479 14.1333 5.82911V15.0979C14.1333 15.5223 13.9647 15.9292 13.6646 16.2293C13.3646 16.5293 12.9576 16.6979 12.5333 16.6979H2.93325C2.50891 16.6979 2.10194 16.5293 1.80188 16.2293C1.50182 15.9292 1.33325 15.5223 1.33325 15.0979V2.29791C1.33325 1.87356 1.50182 1.46659 1.80188 1.16654C2.10194 0.866477 2.50891 0.697906 2.93325 0.697906H9.00205ZM7.73325 2.29791H2.93325V15.0979H12.5333V7.09791H8.93325C8.63495 7.09789 8.34734 6.98677 8.12652 6.78621C7.90569 6.58565 7.76749 6.31003 7.73885 6.01311L7.73325 5.89791V2.29791ZM9.33325 2.62911V5.49791H12.2021L9.33325 2.62911Z" fill="#717171"/>
</svg>
