<svg width="16" height="16" viewBox="0 0 16 16" fill="none" xmlns="http://www.w3.org/2000/svg">
<path d="M14.9171 4.81305L10.1228 0.610079C9.68332 0.216986 9.11436 -0.000335693 8.52472 -0.000335693C7.93508 -0.000335693 7.36613 0.216986 6.92663 0.610079L2.13237 4.81305C1.87857 5.04004 1.67604 5.31849 1.53826 5.62987C1.40048 5.94125 1.33062 6.2784 1.33333 6.61889V13.6025C1.33333 14.2383 1.58588 14.848 2.03543 15.2976C2.48498 15.7471 3.0947 15.9997 3.73046 15.9997H13.319C13.9547 15.9997 14.5645 15.7471 15.014 15.2976C15.4636 14.848 15.7161 14.2383 15.7161 13.6025V6.6109C15.7177 6.27176 15.6473 5.93614 15.5095 5.62622C15.3718 5.31631 15.1699 5.03914 14.9171 4.81305V4.81305ZM10.1228 14.4016H6.92663V10.4064C6.92663 10.1944 7.01082 9.9912 7.16067 9.84135C7.31052 9.6915 7.51376 9.60731 7.72568 9.60731H9.32377C9.53569 9.60731 9.73893 9.6915 9.88877 9.84135C10.0386 9.9912 10.1228 10.1944 10.1228 10.4064V14.4016ZM14.118 13.6025C14.118 13.8145 14.0338 14.0177 13.884 14.1675C13.7341 14.3174 13.5309 14.4016 13.319 14.4016H11.7209V10.4064C11.7209 9.7706 11.4683 9.16088 11.0188 8.71133C10.5692 8.26178 9.95952 8.00923 9.32377 8.00923H7.72568C7.08992 8.00923 6.4802 8.26178 6.03065 8.71133C5.5811 9.16088 5.32855 9.7706 5.32855 10.4064V14.4016H3.73046C3.51854 14.4016 3.3153 14.3174 3.16545 14.1675C3.0156 14.0177 2.93142 13.8145 2.93142 13.6025V6.6109C2.93156 6.49745 2.95586 6.38533 3.0027 6.282C3.04955 6.17867 3.11786 6.08649 3.20309 6.01162L7.99735 1.81664C8.14317 1.68853 8.33063 1.61789 8.52472 1.61789C8.71882 1.61789 8.90627 1.68853 9.05209 1.81664L13.8464 6.01162C13.9316 6.08649 13.9999 6.17867 14.0467 6.282C14.0936 6.38533 14.1179 6.49745 14.118 6.6109V13.6025Z" fill="#005B80"/>
</svg>
