<svg width="20" height="20" viewBox="0 0 20 20" fill="none" xmlns="http://www.w3.org/2000/svg">
<path d="M15.5998 12.3C15.8915 11.5917 16.0498 10.8334 16.0498 10C16.0498 9.40004 15.9582 8.82504 15.7998 8.2917C15.2582 8.4167 14.6915 8.48337 14.0998 8.48337C12.8881 8.48467 11.6939 8.19464 10.6178 7.63772C9.54165 7.08081 8.6152 6.27333 7.9165 5.28337C7.16908 7.09185 5.75911 8.54654 3.97484 9.35004C3.9415 9.55837 3.9415 9.78337 3.9415 10C3.9415 10.7956 4.09821 11.5834 4.40267 12.3185C4.70713 13.0535 5.15338 13.7214 5.71595 14.2839C6.85211 15.4201 8.39307 16.0584 9.99984 16.0584C10.8748 16.0584 11.7165 15.8667 12.4748 15.525C12.9498 16.4334 13.1665 16.8834 13.1498 16.8834C11.7832 17.3417 10.7248 17.5667 9.99984 17.5667C7.98317 17.5667 6.05817 16.775 4.6415 15.35C3.77984 14.491 3.13931 13.4359 2.77484 12.275H1.6665V8.48337H2.57484C2.85004 7.1438 3.48275 5.90371 4.40583 4.8947C5.32891 3.88568 6.50793 3.14538 7.81778 2.75234C9.12763 2.35929 10.5195 2.32818 11.8456 2.66229C13.1717 2.9964 14.3826 3.68328 15.3498 4.65004C16.4 5.69608 17.1163 7.03012 17.4082 8.48337H18.3332V12.275H18.2832L15.3165 15L10.8998 14.5V13.1084H14.9248L15.5998 12.3M7.72484 9.80837C7.97484 9.80837 8.2165 9.90837 8.3915 10.0917C8.56738 10.269 8.66606 10.5086 8.66606 10.7584C8.66606 11.0081 8.56738 11.2477 8.3915 11.425C8.2165 11.6 7.97484 11.7 7.72484 11.7C7.19984 11.7 6.77484 11.2834 6.77484 10.7584C6.77484 10.2334 7.19984 9.80837 7.72484 9.80837M12.2665 9.80837C12.7915 9.80837 13.2082 10.2334 13.2082 10.7584C13.2082 11.2834 12.7915 11.7 12.2665 11.7C11.7415 11.7 11.3165 11.2834 11.3165 10.7584C11.3165 10.5064 11.4166 10.2648 11.5948 10.0866C11.7729 9.90846 12.0145 9.80837 12.2665 9.80837V9.80837Z" fill="#007CAD"/>
</svg>
