<svg width="20" height="20" viewBox="0 0 20 20" fill="none" xmlns="http://www.w3.org/2000/svg">
<path d="M14.9998 12.5H4.99984L1.6665 15.8333V2.49996C1.6665 2.27895 1.7543 2.06698 1.91058 1.9107C2.06686 1.75442 2.27882 1.66663 2.49984 1.66663H14.9998C15.2209 1.66663 15.4328 1.75442 15.5891 1.9107C15.7454 2.06698 15.8332 2.27895 15.8332 2.49996V11.6666C15.8332 11.8876 15.7454 12.0996 15.5891 12.2559C15.4328 12.4122 15.2209 12.5 14.9998 12.5ZM19.1665 7.49996V19.1666L15.8332 15.8333H6.6665C6.44549 15.8333 6.23353 15.7455 6.07725 15.5892C5.92097 15.4329 5.83317 15.221 5.83317 15V14.1666H17.4998V6.66663H18.3332C18.5542 6.66663 18.7661 6.75442 18.9224 6.9107C19.0787 7.06698 19.1665 7.27895 19.1665 7.49996ZM6.82484 3.33329C6.09984 3.33329 5.5165 3.49996 5.0665 3.82496C4.63317 4.16663 4.4165 4.64163 4.42484 5.29996L4.43317 5.32496H6.0415C6.04984 5.07496 6.12484 4.88329 6.27484 4.74996C6.42915 4.622 6.62442 4.55395 6.82484 4.55829C7.08317 4.55829 7.29984 4.64163 7.44984 4.79163C7.59984 4.94996 7.6665 5.16663 7.6665 5.41663C7.6665 5.68329 7.60817 5.90829 7.47484 6.09996C7.35817 6.29163 7.18317 6.45829 6.9665 6.59163C6.5415 6.87496 6.24984 7.12496 6.0915 7.34996C5.92484 7.56663 5.83317 7.91663 5.83317 8.33329H7.49984C7.49984 8.07496 7.53317 7.86663 7.60817 7.71663C7.68317 7.56663 7.82484 7.41663 8.03317 7.28329C8.40817 7.08329 8.7165 6.84163 8.95817 6.50829C9.19984 6.17496 9.32484 5.83329 9.32484 5.41663C9.32484 4.78329 9.09984 4.27496 8.64984 3.89996C8.20817 3.52496 7.59984 3.33329 6.82484 3.33329ZM5.83317 9.16663V10.8333H7.49984V9.16663H5.83317ZM10.8332 10.8333H12.4998V9.16663H10.8332V10.8333ZM10.8332 3.33329V8.33329H12.4998V3.33329H10.8332Z" fill="#007CAD"/>
</svg>
