<svg width="17" height="20" viewBox="0 0 17 20" fill="none" xmlns="http://www.w3.org/2000/svg">
<path fill-rule="evenodd" clip-rule="evenodd" d="M14.375 9.0625V10.6788L16.0669 12.3706C16.1841 12.4878 16.25 12.6468 16.25 12.8125V14.6875C16.25 14.8533 16.1842 15.0122 16.0669 15.1294C15.9497 15.2467 15.7908 15.3125 15.625 15.3125H11.25V15.9375C11.25 16.7663 10.9208 17.5612 10.3347 18.1472C9.74866 18.7333 8.9538 19.0625 8.125 19.0625C7.2962 19.0625 6.50134 18.7333 5.91529 18.1472C5.32924 17.5612 5 16.7663 5 15.9375V15.3125H0.625C0.45924 15.3125 0.300268 15.2467 0.183058 15.1294C0.065848 15.0122 0 14.8533 0 14.6875V12.8125C3.53984e-05 12.6468 0.0659066 12.4878 0.183125 12.3706L1.875 10.6788V8.4375C1.87694 6.88865 2.45311 5.39553 3.49211 4.24686C4.5311 3.0982 5.95911 2.37558 7.5 2.21875V0.9375H8.75V2.21938C9.39728 2.28555 10.0301 2.45345 10.625 2.71687V4.11375C9.86584 3.67215 9.00359 3.4387 8.12534 3.43699C7.24709 3.43528 6.38393 3.66536 5.62306 4.104C4.86219 4.54265 4.23055 5.17431 3.79193 5.9352C3.35331 6.69608 3.12326 7.55925 3.125 8.4375V10.9375C3.12496 11.1032 3.05909 11.2622 2.94187 11.3794L1.25 13.0712V14.0625H15V13.0712L13.3081 11.3794C13.1909 11.2622 13.125 11.1032 13.125 10.9375V9.0625H14.375ZM9.45083 17.2633C9.80246 16.9117 10 16.4348 10 15.9375V15.3125H6.25V15.9375C6.25 16.4348 6.44754 16.9117 6.79917 17.2633C7.15081 17.615 7.62772 17.8125 8.125 17.8125C8.62228 17.8125 9.09919 17.615 9.45083 17.2633ZM16.875 5.3125C16.875 6.69321 15.7557 7.8125 14.375 7.8125C12.9943 7.8125 11.875 6.69321 11.875 5.3125C11.875 3.93179 12.9943 2.8125 14.375 2.8125C15.7557 2.8125 16.875 3.93179 16.875 5.3125Z" fill="#007CAD"/>
</svg>
