<svg width="17" height="16" viewBox="0 0 17 16" fill="none" xmlns="http://www.w3.org/2000/svg">
<path d="M5.11949 0H11.8395C14.3995 0 16.4795 2.08 16.4795 4.64V11.36C16.4795 12.5906 15.9906 13.7708 15.1205 14.641C14.2503 15.5111 13.0701 16 11.8395 16H5.11949C2.55949 16 0.479492 13.92 0.479492 11.36V4.64C0.479492 3.4094 0.968348 2.22919 1.83852 1.35902C2.70869 0.488856 3.88889 0 5.11949 0ZM4.95949 1.6C4.19567 1.6 3.46313 1.90343 2.92302 2.44353C2.38292 2.98364 2.07949 3.71618 2.07949 4.48V11.52C2.07949 13.112 3.36749 14.4 4.95949 14.4H11.9995C12.7633 14.4 13.4959 14.0966 14.036 13.5565C14.5761 13.0164 14.8795 12.2838 14.8795 11.52V4.48C14.8795 2.888 13.5915 1.6 11.9995 1.6H4.95949ZM12.6795 2.8C12.9447 2.8 13.1991 2.90536 13.3866 3.09289C13.5741 3.28043 13.6795 3.53478 13.6795 3.8C13.6795 4.06522 13.5741 4.31957 13.3866 4.50711C13.1991 4.69464 12.9447 4.8 12.6795 4.8C12.4143 4.8 12.1599 4.69464 11.9724 4.50711C11.7848 4.31957 11.6795 4.06522 11.6795 3.8C11.6795 3.53478 11.7848 3.28043 11.9724 3.09289C12.1599 2.90536 12.4143 2.8 12.6795 2.8ZM8.47949 4C9.54036 4 10.5578 4.42143 11.3079 5.17157C12.0581 5.92172 12.4795 6.93913 12.4795 8C12.4795 9.06087 12.0581 10.0783 11.3079 10.8284C10.5578 11.5786 9.54036 12 8.47949 12C7.41863 12 6.40121 11.5786 5.65107 10.8284C4.90092 10.0783 4.47949 9.06087 4.47949 8C4.47949 6.93913 4.90092 5.92172 5.65107 5.17157C6.40121 4.42143 7.41863 4 8.47949 4ZM8.47949 5.6C7.84297 5.6 7.23252 5.85286 6.78244 6.30294C6.33235 6.75303 6.07949 7.36348 6.07949 8C6.07949 8.63652 6.33235 9.24697 6.78244 9.69706C7.23252 10.1471 7.84297 10.4 8.47949 10.4C9.11601 10.4 9.72646 10.1471 10.1765 9.69706C10.6266 9.24697 10.8795 8.63652 10.8795 8C10.8795 7.36348 10.6266 6.75303 10.1765 6.30294C9.72646 5.85286 9.11601 5.6 8.47949 5.6Z" fill="white"/>
</svg>
