<svg width="17" height="16" viewBox="0 0 17 16" fill="none" xmlns="http://www.w3.org/2000/svg">
<path d="M12.0085 9.6C12.0725 9.072 12.1205 8.544 12.1205 8C12.1205 7.456 12.0725 6.928 12.0085 6.4H14.7125C14.8405 6.912 14.9205 7.448 14.9205 8C14.9205 8.552 14.8405 9.088 14.7125 9.6M10.5925 14.048C11.0725 13.16 11.4405 12.2 11.6965 11.2H14.0565C13.2814 12.5346 12.0518 13.5456 10.5925 14.048ZM10.3925 9.6H6.64851C6.56851 9.072 6.52051 8.544 6.52051 8C6.52051 7.456 6.56851 6.92 6.64851 6.4H10.3925C10.4645 6.92 10.5205 7.456 10.5205 8C10.5205 8.544 10.4645 9.072 10.3925 9.6ZM8.52051 14.368C7.85651 13.408 7.32051 12.344 6.99251 11.2H10.0485C9.72051 12.344 9.18451 13.408 8.52051 14.368ZM5.32051 4.8H2.98451C3.75159 3.46177 4.98034 2.44919 6.44051 1.952C5.96051 2.84 5.60051 3.8 5.32051 4.8ZM2.98451 11.2H5.32051C5.60051 12.2 5.96051 13.16 6.44051 14.048C4.98341 13.5453 3.75638 12.5342 2.98451 11.2ZM2.32851 9.6C2.20051 9.088 2.12051 8.552 2.12051 8C2.12051 7.448 2.20051 6.912 2.32851 6.4H5.03251C4.96851 6.928 4.92051 7.456 4.92051 8C4.92051 8.544 4.96851 9.072 5.03251 9.6M8.52051 1.624C9.18451 2.584 9.72051 3.656 10.0485 4.8H6.99251C7.32051 3.656 7.85651 2.584 8.52051 1.624ZM14.0565 4.8H11.6965C11.4461 3.80917 11.0754 2.85272 10.5925 1.952C12.0645 2.456 13.2885 3.472 14.0565 4.8ZM8.52051 0C4.09651 0 0.520508 3.6 0.520508 8C0.520508 10.1217 1.36336 12.1566 2.86365 13.6569C3.60652 14.3997 4.48844 14.989 5.45904 15.391C6.42964 15.7931 7.46993 16 8.52051 16C10.6422 16 12.6771 15.1571 14.1774 13.6569C15.6777 12.1566 16.5205 10.1217 16.5205 8C16.5205 6.94943 16.3136 5.90914 15.9115 4.93853C15.5095 3.96793 14.9202 3.08601 14.1774 2.34315C13.4345 1.60028 12.5526 1.011 11.582 0.608964C10.6114 0.206926 9.57108 0 8.52051 0Z" fill="white"/>
</svg>
