<svg width="12" height="8" viewBox="0 0 12 8" fill="none" xmlns="http://www.w3.org/2000/svg">
<path d="M11.6633 0.775633C11.45 0.563615 11.1615 0.444611 10.8607 0.444611C10.56 0.444611 10.2715 0.563615 10.0582 0.775633L5.97154 4.80538L1.94179 0.775633C1.72851 0.563615 1.43999 0.444611 1.13926 0.444611C0.838521 0.444611 0.550005 0.563615 0.336721 0.775633C0.230026 0.881458 0.145339 1.00736 0.0875465 1.14608C0.0297541 1.2848 0 1.43358 0 1.58386C0 1.73414 0.0297541 1.88292 0.0875465 2.02164C0.145339 2.16036 0.230026 2.28626 0.336721 2.39209L5.16331 7.21868C5.26914 7.32537 5.39504 7.41006 5.53376 7.46785C5.67248 7.52565 5.82127 7.5554 5.97154 7.5554C6.12182 7.5554 6.2706 7.52565 6.40932 7.46785C6.54804 7.41006 6.67394 7.32537 6.77977 7.21868L11.6633 2.39209C11.77 2.28626 11.8547 2.16036 11.9125 2.02164C11.9702 1.88292 12 1.73414 12 1.58386C12 1.43358 11.9702 1.2848 11.9125 1.14608C11.8547 1.00736 11.77 0.881458 11.6633 0.775633Z" fill="#717171"/>
</svg>
