<svg width="12" height="8" viewBox="0 0 12 8" fill="none" xmlns="http://www.w3.org/2000/svg">
<path d="M11.6633 0.775603C11.45 0.563585 11.1615 0.44458 10.8607 0.44458C10.56 0.44458 10.2715 0.563585 10.0582 0.775603L5.97154 4.80535L1.94179 0.775603C1.72851 0.563585 1.43999 0.44458 1.13926 0.44458C0.838521 0.44458 0.550005 0.563585 0.336721 0.775603C0.230026 0.881427 0.145339 1.00733 0.0875465 1.14605C0.0297541 1.28477 0 1.43355 0 1.58383C0 1.7341 0.0297541 1.88289 0.0875465 2.02161C0.145339 2.16033 0.230026 2.28623 0.336721 2.39206L5.16331 7.21865C5.26914 7.32534 5.39504 7.41003 5.53376 7.46782C5.67248 7.52562 5.82127 7.55537 5.97154 7.55537C6.12182 7.55537 6.2706 7.52562 6.40932 7.46782C6.54804 7.41003 6.67394 7.32534 6.77977 7.21865L11.6633 2.39206C11.77 2.28623 11.8547 2.16033 11.9125 2.02161C11.9702 1.88289 12 1.7341 12 1.58383C12 1.43355 11.9702 1.28477 11.9125 1.14605C11.8547 1.00733 11.77 0.881427 11.6633 0.775603Z" fill="#717171"/>
</svg>
