<svg width="17" height="16" viewBox="0 0 17 16" fill="none" xmlns="http://www.w3.org/2000/svg">
<path d="M14.14 2.32804C13.4066 1.58718 12.5329 0.999779 11.5701 0.600087C10.6073 0.200395 9.57451 -0.00358408 8.53202 4.76556e-05C4.16403 4.76556e-05 0.604039 3.56004 0.604039 7.92802C0.604039 9.32802 0.972038 10.688 1.66004 11.888L0.540039 16L4.74003 14.896C5.90002 15.528 7.20402 15.864 8.53202 15.864C12.9 15.864 16.46 12.304 16.46 7.93602C16.46 5.81603 15.636 3.82404 14.14 2.32804ZM8.53202 14.52C7.34802 14.52 6.18802 14.2 5.17203 13.6L4.93203 13.456L2.43603 14.112L3.10003 11.68L2.94003 11.432C2.28223 10.3816 1.93295 9.16741 1.93203 7.92802C1.93203 4.29603 4.89203 1.33604 8.52402 1.33604C10.284 1.33604 11.94 2.02404 13.18 3.27204C13.794 3.88321 14.2806 4.61016 14.6115 5.41077C14.9425 6.21138 15.1112 7.06971 15.108 7.93602C15.124 11.568 12.164 14.52 8.53202 14.52ZM12.148 9.59202C11.948 9.49602 10.972 9.01602 10.796 8.94402C10.612 8.88002 10.484 8.84802 10.348 9.04002C10.212 9.24002 9.83601 9.68802 9.72401 9.81602C9.61201 9.95202 9.49201 9.96802 9.29201 9.86402C9.09201 9.76802 8.45202 9.55202 7.70002 8.88002C7.10802 8.35202 6.71602 7.70402 6.59602 7.50403C6.48402 7.30403 6.58002 7.20003 6.68402 7.09603C6.77202 7.00803 6.88402 6.86403 6.98002 6.75203C7.07602 6.64003 7.11602 6.55203 7.18002 6.42403C7.24402 6.28803 7.21202 6.17603 7.16402 6.08003C7.11602 5.98403 6.71602 5.00803 6.55602 4.60803C6.39602 4.22404 6.22802 4.27203 6.10802 4.26403H5.72402C5.58802 4.26403 5.38002 4.31203 5.19603 4.51203C5.02003 4.71203 4.50803 5.19203 4.50803 6.16803C4.50803 7.14403 5.22003 8.08802 5.31603 8.21602C5.41202 8.35202 6.71602 10.352 8.70001 11.208C9.17201 11.416 9.54001 11.536 9.82801 11.624C10.3 11.776 10.732 11.752 11.076 11.704C11.46 11.648 12.252 11.224 12.412 10.76C12.58 10.296 12.58 9.90402 12.524 9.81602C12.468 9.72802 12.348 9.68802 12.148 9.59202Z" fill="#25D366"/>
</svg>
